<?xml version="1.0" encoding="utf-8"?>
<svg width="1670.2056px" height="501.06396px" viewBox="0 0 1670.2056 501.06396" version="1.1" xmlns:xlink="http://www.w3.org/1999/xlink" xmlns="http://www.w3.org/2000/svg">
  <defs>
    <radialGradient gradientUnits="objectBoundingBox" cx="29.534908%" cy="3.859563%" fx="29.534908%" fy="3.859563%" r="107.28295%" gradientTransform="translate(0.2953491,0.03859563),rotate(53.411762),scale(1,1.3974662),translate(-0.2953491,-0.03859563)" id="gradient_1">
      <stop offset="0.17108792%" stop-color="#7BC9FF" />
      <stop offset="33.707867%" stop-color="#8576FF" />
      <stop offset="76.96629%" stop-color="#1C1678" />
    </radialGradient>
    <filter filterUnits="userSpaceOnUse" color-interpolation-filters="sRGB" id="filter_1">
      <feFlood flood-opacity="0" result="BackgroundImageFix" />
      <feBlend mode="normal" in="SourceGraphic" in2="BackgroundImageFix" result="shape" />
      <feGaussianBlur stdDeviation="4" result="effect0_gaussianBlur" />
    </filter>
    <filter filterUnits="userSpaceOnUse" color-interpolation-filters="sRGB" id="filter_2">
      <feFlood flood-opacity="0" result="BackgroundImageFix" />
      <feColorMatrix in="SourceAlpha" type="matrix" values="0 0 0 0 0 0 0 0 0 0 0 0 0 0 0 0 0 0 128 0" />
      <feOffset dx="4" dy="4" />
      <feGaussianBlur stdDeviation="2" />
      <feColorMatrix type="matrix" values="0 0 0 0 1 0 0 0 0 1 0 0 0 0 1 0 0 0 0.49803922 0" />
      <feBlend mode="normal" in2="BackgroundImageFix" result="effect0_dropShadow" />
      <feBlend mode="normal" in="SourceGraphic" in2="effect0_dropShadow" result="shape" />
    </filter>
    <filter filterUnits="userSpaceOnUse" color-interpolation-filters="sRGB" id="filter_3">
      <feFlood flood-opacity="0" result="BackgroundImageFix" />
      <feColorMatrix in="SourceAlpha" type="matrix" values="0 0 0 0 0 0 0 0 0 0 0 0 0 0 0 0 0 0 128 0" />
      <feOffset dx="4" dy="4" />
      <feGaussianBlur stdDeviation="2" />
      <feColorMatrix type="matrix" values="0 0 0 0 0.39215687 0 0 0 0 0.39215687 0 0 0 0 0.39215687 0 0 0 0.49803922 0" />
      <feBlend mode="normal" in2="BackgroundImageFix" result="effect0_dropShadow" />
      <feBlend mode="normal" in="SourceGraphic" in2="effect0_dropShadow" result="shape" />
    </filter>
    <path d="M0.254064 216.621C0.254064 216.621 -2.14662 132.616 72.2061 70.5002C146.559 8.38405 235.207 15.0001 235.207 15.0001C235.207 15.0001 320.421 4.87038 398.939 70.5C477.457 136.13 471.208 216.621 471.208 216.621C471.208 216.621 470.908 327.099 370.378 384.668C269.849 442.237 173.707 410.996 173.707 410.996C173.707 410.996 147.615 438.876 117.615 453.501C87.6148 468.126 53.7059 469.5 53.7059 469.5C53.7059 469.5 71.456 454.001 81.7061 432.501C91.9561 410.996 94.7062 383.496 94.7062 383.496C94.7062 383.496 67.3103 375.373 31.2058 323.505C-4.89862 271.637 0.254064 216.621 0.254064 216.621Z" id="path_1" />
    <path d="M0 0L1166 0L1166 334L0 334L0 0Z" id="path_2" />
    <clipPath id="clip_1">
      <use xlink:href="#path_1" clip-rule="evenodd" fill-rule="evenodd" />
    </clipPath>
    <clipPath id="clip_2">
      <use xlink:href="#path_2" clip-rule="evenodd" fill-rule="evenodd" transform="translate(0, -0.59999084)" />
    </clipPath>
  </defs>
  <g id="CHOOMZ" fill-opacity="1" transform="translate(23 8.563477)">
    <path d="M1637.21 0L1637.21 0L1637.21 469.5L0 469.5L0 0L1637.21 0Z" id="CHOOMZ" fill="none" stroke="none" />
    <path d="M0.254064 216.621C0.254064 216.621 -2.14662 132.616 72.2061 70.5002C146.559 8.38405 235.207 15.0001 235.207 15.0001C235.207 15.0001 320.421 4.87038 398.939 70.5C477.457 136.13 471.208 216.621 471.208 216.621C471.208 216.621 470.908 327.099 370.378 384.668C269.849 442.237 173.707 410.996 173.707 410.996C173.707 410.996 147.615 438.876 117.615 453.501C87.6148 468.126 53.7059 469.5 53.7059 469.5C53.7059 469.5 71.456 454.001 81.7061 432.501C91.9561 410.996 94.7062 383.496 94.7062 383.496C94.7062 383.496 67.3103 375.373 31.2058 323.505C-4.89862 271.637 0.254064 216.621 0.254064 216.621Z" clip-path="url(#clip_1)" id="Vector" fill="url(#gradient_1)" fill-rule="evenodd" stroke="url(#gradient_1)" stroke-width="22" filter="url(#filter_1)" />
    <path d="M352.466 167L289.206 194.586L289.206 244.086L352.466 269.586L352.466 167Z" id="Vector" fill="none" fill-rule="evenodd" stroke="#FFFEFE" stroke-width="22" filter="url(#filter_2)" />
    <path d="M139.206 265.276L139.206 173.063C139.206 173.063 139.146 165.551 144.466 159.947C149.787 154.342 158.562 155.063 158.562 155.063L267.062 155.063C267.062 155.063 278.562 154.072 284.062 159.947C289.562 165.822 289.062 178.563 289.062 178.563L289.062 265.276C289.062 265.276 289.562 273.741 284.062 278.063C278.562 282.385 267.062 282.563 267.062 282.563L158.562 282.563C158.562 282.563 149.305 282.385 144.466 278.063C139.627 273.741 139.206 265.276 139.206 265.276Z" id="Vector" fill="none" fill-rule="evenodd" stroke="#FFFFFF" stroke-width="22" filter="url(#filter_2)" />
    <g id="CHOOMZ" clip-path="url(#clip_2)" transform="translate(471.20557 0.59999084)">
      <g transform="translate(41.68799, 70.4)" id="CHOOMZ" fill="#FFFFFF" filter="url(#filter_3)">
        <path d="M91.904 265.472Q73.728 265.472 59.136 259.712Q44.544 253.952 34.304 242.56Q24.064 231.168 18.432 214.144Q12.8 197.12 12.8 174.336Q12.8 151.808 18.432 134.272Q24.064 116.736 34.304 104.832Q44.544 92.928 59.136 86.784Q73.728 80.64 91.904 80.64Q116.736 80.64 132.864 90.752Q148.992 100.864 158.72 122.624L125.184 140.032Q121.6 128.768 114.048 121.984Q106.496 115.2 91.904 115.2Q74.752 115.2 64.384 126.336Q54.016 137.472 54.016 158.72L54.016 187.392Q54.016 208.64 64.384 219.776Q74.752 230.912 91.904 230.912Q106.24 230.912 114.816 223.104Q123.392 215.296 127.488 204.288L159.232 222.72Q149.248 243.2 132.992 254.336Q116.736 265.472 91.904 265.472ZM293.376 189.184L225.28 189.184L225.28 262.4L186.368 262.4L186.368 83.712L225.28 83.712L225.28 154.624L293.376 154.624L293.376 83.712L332.288 83.712L332.288 262.4L293.376 262.4L293.376 189.184ZM443.392 265.472Q425.728 265.472 411.136 259.584Q396.544 253.696 386.304 242.048Q376.064 230.4 370.432 213.12Q364.8 195.84 364.8 173.056Q364.8 150.272 370.432 132.992Q376.064 115.712 386.304 104.064Q396.544 92.416 411.136 86.528Q425.728 80.64 443.392 80.64Q461.056 80.64 475.648 86.528Q490.24 92.416 500.48 104.064Q510.72 115.712 516.352 132.992Q521.984 150.272 521.984 173.056Q521.984 195.84 516.352 213.12Q510.72 230.4 500.48 242.048Q490.24 253.696 475.648 259.584Q461.056 265.472 443.392 265.472ZM443.392 230.912Q461.056 230.912 470.912 219.392Q480.768 207.872 480.768 186.368L480.768 159.744Q480.768 138.24 470.912 126.72Q461.056 115.2 443.392 115.2Q425.728 115.2 415.872 126.72Q406.016 138.24 406.016 159.744L406.016 186.368Q406.016 207.872 415.872 219.392Q425.728 230.912 443.392 230.912ZM626.176 265.472Q608.512 265.472 593.92 259.584Q579.328 253.696 569.088 242.048Q558.848 230.4 553.216 213.12Q547.584 195.84 547.584 173.056Q547.584 150.272 553.216 132.992Q558.848 115.712 569.088 104.064Q579.328 92.416 593.92 86.528Q608.512 80.64 626.176 80.64Q643.84 80.64 658.432 86.528Q673.024 92.416 683.264 104.064Q693.504 115.712 699.136 132.992Q704.768 150.272 704.768 173.056Q704.768 195.84 699.136 213.12Q693.504 230.4 683.264 242.048Q673.024 253.696 658.432 259.584Q643.84 265.472 626.176 265.472ZM626.176 230.912Q643.84 230.912 653.696 219.392Q663.552 207.872 663.552 186.368L663.552 159.744Q663.552 138.24 653.696 126.72Q643.84 115.2 626.176 115.2Q608.512 115.2 598.656 126.72Q588.8 138.24 588.8 159.744L588.8 186.368Q588.8 207.872 598.656 219.392Q608.512 230.912 626.176 230.912ZM870.912 145.152L870.144 145.152L857.088 171.264L822.272 234.496L788.224 171.52L774.656 143.36L773.888 143.36L773.888 262.4L737.28 262.4L737.28 83.712L778.496 83.712L822.272 167.424L822.784 167.424L866.048 83.712L907.52 83.712L907.52 262.4L870.912 262.4L870.912 145.152ZM1072.64 262.4L937.216 262.4L937.216 227.84L1025.28 118.272L941.568 118.272L941.568 83.712L1070.59 83.712L1070.59 118.272L982.272 227.84L1072.64 227.84L1072.64 262.4Z" />
      </g>
    </g>
  </g>
</svg>


