<svg width="517.32544px" height="501.06396px" viewBox="0 0 517.32544 501.06396" version="1.1" xmlns:xlink="http://www.w3.org/1999/xlink" xmlns="http://www.w3.org/2000/svg">
  <defs>
    <radialGradient gradientUnits="objectBoundingBox" cx="29.534908%" cy="3.859563%" fx="29.534908%" fy="3.859563%" r="107.28295%" gradientTransform="translate(0.2953491,0.03859563),rotate(53.411762),scale(1,1.3974662),translate(-0.2953491,-0.03859563)" id="gradient_1">
      <stop offset="0.17108792%" stop-color="#7BC9FF" />
      <stop offset="33.707867%" stop-color="#8576FF" />
      <stop offset="76.96629%" stop-color="#1C1678" />
    </radialGradient>
    <filter filterUnits="userSpaceOnUse" color-interpolation-filters="sRGB" id="filter_1">
      <feFlood flood-opacity="0" result="BackgroundImageFix" />
      <feBlend mode="normal" in="SourceGraphic" in2="BackgroundImageFix" result="shape" />
      <feGaussianBlur stdDeviation="4" result="effect0_gaussianBlur" />
    </filter>
    <filter filterUnits="userSpaceOnUse" color-interpolation-filters="sRGB" id="filter_2">
      <feFlood flood-opacity="0" result="BackgroundImageFix" />
      <feColorMatrix in="SourceAlpha" type="matrix" values="0 0 0 0 0 0 0 0 0 0 0 0 0 0 0 0 0 0 128 0" />
      <feOffset dx="4" dy="4" />
      <feGaussianBlur stdDeviation="2" />
      <feColorMatrix type="matrix" values="0 0 0 0 1 0 0 0 0 1 0 0 0 0 1 0 0 0 0.49803922 0" />
      <feBlend mode="normal" in2="BackgroundImageFix" result="effect0_dropShadow" />
      <feBlend mode="normal" in="SourceGraphic" in2="effect0_dropShadow" result="shape" />
    </filter>
    <path d="M0.254064 202.185C0.254064 202.185 -2.14662 118.18 72.2061 56.0637C146.559 -6.05248 235.207 0.563612 235.207 0.563612C235.207 0.563612 320.421 -9.56615 398.939 56.0635C477.457 121.693 471.208 202.185 471.208 202.185C471.208 202.185 470.908 312.663 370.378 370.231C269.849 427.8 173.707 396.56 173.707 396.56C173.707 396.56 147.615 424.439 117.615 439.064C87.6148 453.689 53.7059 455.064 53.7059 455.064C53.7059 455.064 71.456 439.564 81.7061 418.064C91.9561 396.56 94.7062 369.06 94.7062 369.06C94.7062 369.06 67.3103 360.937 31.2058 309.069C-4.89862 257.201 0.254064 202.185 0.254064 202.185Z" id="path_1" />
    <clipPath id="clip_1">
      <use xlink:href="#path_1" clip-rule="evenodd" fill-rule="evenodd" />
    </clipPath>
  </defs>
  <g id="Vector" fill-opacity="1" transform="translate(23 23)">
    <path d="M471.325 0L471.325 0L471.325 455.064L0 455.064L0 0L471.325 0Z" id="Vector" fill="none" stroke="none" />
    <path d="M0.254064 202.185C0.254064 202.185 -2.14662 118.18 72.2061 56.0637C146.559 -6.05248 235.207 0.563612 235.207 0.563612C235.207 0.563612 320.421 -9.56615 398.939 56.0635C477.457 121.693 471.208 202.185 471.208 202.185C471.208 202.185 470.908 312.663 370.378 370.231C269.849 427.8 173.707 396.56 173.707 396.56C173.707 396.56 147.615 424.439 117.615 439.064C87.6148 453.689 53.7059 455.064 53.7059 455.064C53.7059 455.064 71.456 439.564 81.7061 418.064C91.9561 396.56 94.7062 369.06 94.7062 369.06C94.7062 369.06 67.3103 360.937 31.2058 309.069C-4.89862 257.201 0.254064 202.185 0.254064 202.185Z" clip-path="url(#clip_1)" id="Vector" fill="url(#gradient_1)" fill-rule="evenodd" stroke="url(#gradient_1)" stroke-width="22" filter="url(#filter_1)" />
    <path d="M352.466 152.563L289.206 180.15L289.206 229.65L352.466 255.15L352.466 152.563Z" id="Vector" fill="none" fill-rule="evenodd" stroke="#FFFEFE" stroke-width="22" filter="url(#filter_2)" />
    <path d="M139.206 250.839L139.206 158.627C139.206 158.627 139.146 151.115 144.466 145.51C149.787 139.906 158.562 140.627 158.562 140.627L267.062 140.627C267.062 140.627 278.562 139.635 284.062 145.51C289.562 151.385 289.062 164.127 289.062 164.127L289.062 250.839C289.062 250.839 289.562 259.305 284.062 263.627C278.562 267.948 267.062 268.127 267.062 268.127L158.562 268.127C158.562 268.127 149.305 267.948 144.466 263.627C139.627 259.305 139.206 250.839 139.206 250.839Z" id="Vector" fill="none" fill-rule="evenodd" stroke="#FFFFFF" stroke-width="22" filter="url(#filter_2)" />
  </g>
</svg>